# xmcd
#
# Track frame offsets: 
#        150
#        13625
#        25712
#        38312
#        52775
#        67887
#        86475
#        101687
#        120600
#        132625
#        143500
#        157587
#        172487
#        187875
#        205525
#        220450
#
# Disc length: 3156 seconds
#
# Revision: 2
# Processed by: cddbd v1.5.2PL0 Copyright (c) Steve Scherf et al.
# Submitted via: ExactAudioCopy v1.0b3
#
DISCID=c80c5210
DTITLE=Kenny Rogers - 16 Original World Hits
DYEAR=1989
DGENRE=Country
TTITLE0=Ruby, don't take your love to town (1969)
TTITLE1=Elvira (1969)
TTITLE2=Reuben James (1969)
TTITLE3=Sunshine (1969)
TTITLE4=Just dropped in (1967)
TTITLE5=I believe in music (1972)
TTITLE6=Tell it all brother (1970)
TTITLE7=The king of Oak Street (1970)
TTITLE8=Me and Bobby McGee (1969)
TTITLE9=She even woke me up to say goodbye (1970)
TTITLE10=But you know I love you (1968)
TTITLE11=Heed the call (1970)
TTITLE12=For the good times (1971)
TTITLE13=Something's burning (1970)
TTITLE14=All god's lovely children (1971)
TTITLE15=Tulsa turnaround (1968)
EXTD=
EXTT0=
EXTT1=
EXTT2=
EXTT3=
EXTT4=
EXTT5=
EXTT6=
EXTT7=
EXTT8=
EXTT9=
EXTT10=
EXTT11=
EXTT12=
EXTT13=
EXTT14=
EXTT15=
PLAYORDER=
